<svg width="794" height="385" viewBox="0 0 794 385" fill="none" xmlns="http://www.w3.org/2000/svg">
<rect width="794" height="385" fill="#FFF8F2"/>
<path d="M520.532 204.489C538.555 204.489 553.166 219.099 553.166 237.122C553.166 255.146 538.555 269.756 520.532 269.756C502.509 269.756 487.898 255.146 487.898 237.122C487.898 219.099 502.509 204.489 520.532 204.489Z" fill="#009688"/>
<path d="M272.634 116C290.657 116 305.268 130.611 305.268 148.634C305.268 166.657 290.657 181.268 272.634 181.268C254.611 181.268 240 166.657 240 148.634C240 130.611 254.611 116 272.634 116Z" fill="#FCCE30"/>
<path d="M520.532 116C538.555 116 553.166 130.611 553.166 148.634C553.166 166.657 538.555 181.268 520.532 181.268C502.509 181.268 487.898 166.657 487.898 148.634C487.898 130.611 502.509 116 520.532 116Z" fill="#E25F16"/>
<path d="M269.276 204.691V269.756H443.65V204.691H269.276Z" fill="#2D70FD"/>
<path d="M476.185 237.224C476.185 219.257 461.587 204.692 443.578 204.692C425.569 204.692 410.971 219.257 410.971 237.224C410.971 255.192 425.569 269.757 443.578 269.757C461.587 269.757 476.185 255.192 476.185 237.224Z" fill="#2D70FD"/>
<path d="M272.634 204.489C268.348 204.489 264.105 205.333 260.145 206.973C256.186 208.613 252.589 211.016 249.558 214.047C246.528 217.077 244.124 220.675 242.484 224.634C240.844 228.593 240 232.837 240 237.122C240 241.408 240.844 245.651 242.484 249.611C244.124 253.57 246.528 257.168 249.558 260.198C252.589 263.228 256.186 265.632 260.145 267.272C264.105 268.912 268.348 269.756 272.634 269.756V237.122V204.489Z" fill="#2D70FD"/>
<path d="M346.809 116C342.523 116 338.28 116.844 334.32 118.484C330.361 120.124 326.763 122.528 323.733 125.558C320.703 128.589 318.299 132.186 316.659 136.145C315.019 140.105 314.175 144.348 314.175 148.634C314.175 152.919 315.019 157.163 316.659 161.122C318.299 165.082 320.703 168.679 323.733 171.71C326.763 174.74 330.361 177.144 334.32 178.784C338.28 180.424 342.523 181.268 346.809 181.268V148.634V116Z" fill="#E2164B"/>
<path fill-rule="evenodd" clip-rule="evenodd" d="M344.752 116.203V181.268H444.301V181.266C461.938 181.088 476.181 166.592 476.181 148.735C476.181 130.878 461.938 116.382 444.301 116.204V116.203H444.118C444.07 116.202 444.022 116.202 443.974 116.202C443.926 116.202 443.877 116.202 443.829 116.203H344.752Z" fill="#E2164B"/>
<path d="M272.634 116C290.657 116 305.268 130.611 305.268 148.634C305.268 166.657 290.657 181.268 272.634 181.268C254.611 181.268 240 166.657 240 148.634C240 130.611 254.611 116 272.634 116Z" fill="#FCCE30"/>
</svg>
